<svg width="18" height="17" viewBox="0 0 18 17" fill="black" xmlns="http://www.w3.org/2000/svg">
<path d="M0.6875 0C0.808487 2.83103e-05 0.927315 0.032049 1.03194 0.0928135L14.0944 7.65531C14.1986 7.71575 14.2851 7.80249 14.3452 7.90686C14.4053 8.01123 14.437 8.12956 14.437 8.25C14.437 8.37044 14.4053 8.48877 14.3452 8.59314C14.2851 8.69751 14.1986 8.78425 14.0944 8.84469L1.03194 16.4072C0.927458 16.4677 0.808896 16.4996 0.688173 16.4997C0.567451 16.4998 0.448824 16.4681 0.344227 16.4079C0.23963 16.3476 0.152748 16.2608 0.0923214 16.1563C0.0318948 16.0518 5.39903e-05 15.9332 0 15.8125L0 0.6875C0 0.505164 0.0724314 0.330294 0.201363 0.201363C0.330294 0.0724314 0.505164 0 0.6875 0ZM17.875 16.5H16.5L16.5 0H17.875L17.875 16.5Z" fill="white"/>
</svg>
