<svg width="18" height="17" viewBox="0 0 18 17" fill="black"
                        xmlns="http://www.w3.org/2000/svg">
                        <path
                            d="M17.1875 16.5C17.0665 16.5 16.9477 16.468 16.8431 16.4072L3.78056 8.84469C3.67638 8.78425 3.5899 8.69751 3.52979 8.59314C3.46967 8.48877 3.43803 8.37044 3.43803 8.25C3.43803 8.12956 3.46967 8.01123 3.52979 7.90686C3.5899 7.80249 3.67638 7.71575 3.78056 7.65531L16.8431 0.0928127C16.9475 0.0323306 17.0661 0.00042592 17.1868 0.000307828C17.3075 0.000189736 17.4262 0.0318621 17.5308 0.0921396C17.6354 0.152417 17.7223 0.239175 17.7827 0.343686C17.8431 0.448197 17.8749 0.566777 17.875 0.6875V15.8125C17.875 15.9948 17.8026 16.1697 17.6736 16.2986C17.5447 16.4276 17.3698 16.5 17.1875 16.5ZM0 0H1.375V16.5H0V0Z"
                            fill="white" />
                    </svg>